<svg xmlns="http://www.w3.org/2000/svg" width="164" height="21" viewBox="0 0 164 21">
    <path fill="#FFF" fill-rule="evenodd" d="M13.296 5.36l1.656-3.48C13.2.752 10.704-.016 8.232-.016c-4.056 0-6.72 1.992-6.72 5.136 0 5.952 8.856 4.224 8.856 7.08 0 .888-.816 1.368-2.112 1.368-1.752 0-4.368-1.056-6.096-2.544L.456 14.456c2.016 1.656 4.944 2.688 7.752 2.688 3.744 0 6.768-1.752 6.768-5.184 0-6.048-8.856-4.464-8.856-7.248 0-.768.696-1.152 1.752-1.152 1.392 0 3.648.792 5.424 1.8zm20.328 11.064l1.536 2.712c-1.296 1.152-3.216 1.872-4.896 1.872-2.352 0-4.344-1.464-5.424-3.816-5.016-.192-8.712-3.816-8.712-8.616 0-4.896 3.888-8.52 9.096-8.52s9.096 3.648 9.096 8.52c0 3.72-2.208 6.72-5.544 7.992.576.672 1.224 1.104 1.968 1.104.768 0 1.848-.48 2.88-1.248zM20.64 8.6c0 2.736 2.136 4.848 4.632 4.848 2.52 0 4.536-2.112 4.536-4.848 0-2.736-2.016-4.8-4.536-4.8-2.52 0-4.632 2.064-4.632 4.8zm20.064 1.344V.176h-4.392v9.768c0 4.44 3.048 7.248 7.8 7.248 4.728 0 7.704-2.808 7.704-7.248V.176h-4.392v9.768c0 2.184-1.344 3.504-3.288 3.504-1.992 0-3.432-1.344-3.432-3.504zM67.152 17L66 14.024h-7.272L57.552 17H53.04L60.264.176h4.512L71.832 17h-4.68zm-7.104-6.336h4.656l-2.304-6-2.352 6zM80.592.176c5.328 0 8.952 3.408 8.952 8.4 0 5.016-3.672 8.424-9.12 8.424h-7.08V.176h7.248zm.12 13.272c2.544 0 4.344-1.944 4.344-4.824 0-2.904-1.896-4.872-4.56-4.872h-2.76v9.696h2.976zM90.24.2L97.056 17h1.992L105.912.2h-2.016l-5.808 14.64L92.304.2H90.24zm25.584-.048c4.896 0 8.784 3.72 8.784 8.448s-3.888 8.472-8.784 8.472c-4.92 0-8.808-3.744-8.808-8.472s3.888-8.448 8.808-8.448zm0 1.776c-3.744 0-6.864 2.952-6.864 6.672 0 3.72 3.12 6.72 6.864 6.72 3.744 0 6.816-3 6.816-6.72 0-3.72-3.072-6.672-6.816-6.672zM128.112.2V17h1.92V.2h-1.92zm19.176 3.792L148.44 2.6c-1.608-1.512-3.84-2.448-6.144-2.448-4.872 0-8.76 3.72-8.76 8.424 0 4.752 3.84 8.496 8.688 8.496 2.328 0 4.584-.984 6.24-2.544l-1.176-1.272c-1.32 1.248-3.12 2.016-4.968 2.016-3.792 0-6.84-3-6.84-6.696 0-3.72 3.048-6.672 6.84-6.672 1.848 0 3.672.792 4.968 2.088zM151.92.2V17h11.712v-1.776h-9.792V9.368h8.472V7.616h-8.472v-5.64h9.48V.2h-11.4z"/>
</svg>
