<?xml version="1.0" encoding="utf-8"?>
<!-- Generator: Adobe Illustrator 24.3.0, SVG Export Plug-In . SVG Version: 6.00 Build 0)  -->
<svg version="1.1" id="Layer_1" xmlns="http://www.w3.org/2000/svg" xmlns:xlink="http://www.w3.org/1999/xlink" x="0px" y="0px"
	 viewBox="0 0 480.6 146.5" style="enable-background:new 0 0 480.6 146.5;" xml:space="preserve">
<style type="text/css">
	.st0{fill:#FFFFFF;}
	.st1{fill:#39CEA0;}
	.st2{fill:none;}
</style>
<g>
	<path class="st0" d="M179.6,59c-0.3-2.4-1.3-4.2-3.2-5.6c-1.9-1.3-4.3-2-7.3-2c-2.1,0-3.9,0.3-5.4,1c-1.5,0.6-2.7,1.5-3.5,2.6
		c-0.8,1.1-1.2,2.4-1.2,3.7c0,1.2,0.3,2.2,0.8,3c0.6,0.9,1.3,1.6,2.2,2.2c1,0.6,2,1.1,3.1,1.5c1.1,0.4,2.3,0.7,3.4,1l5.2,1.3
		c2.1,0.5,4.1,1.1,6.1,2c1.9,0.8,3.7,1.9,5.3,3.2c1.5,1.3,2.8,2.8,3.7,4.6c0.9,1.8,1.4,3.9,1.4,6.3c0,3.3-0.8,6.1-2.5,8.6
		c-1.7,2.5-4.1,4.4-7.2,5.8c-3.2,1.4-7,2.1-11.4,2.1c-4.3,0-8.1-0.7-11.3-2s-5.7-3.3-7.5-5.9c-1.8-2.6-2.8-5.7-2.9-9.4h9.9
		c0.1,1.9,0.7,3.6,1.8,4.8c1.1,1.3,2.4,2.3,4.1,2.9c1.7,0.6,3.6,1,5.7,1c2.2,0,4.1-0.3,5.8-1c1.7-0.7,3-1.6,3.9-2.8
		c0.9-1.2,1.5-2.7,1.4-4.2c0-1.5-0.4-2.7-1.3-3.6c-0.8-1-2-1.8-3.5-2.4c-1.7-0.7-3.5-1.3-5.2-1.7l-6.4-1.6c-4.6-1.2-8.2-3-10.9-5.4
		c-2.7-2.4-4-5.6-4-9.6c0-3.3,0.9-6.2,2.7-8.6c1.8-2.5,4.2-4.4,7.3-5.8c3.1-1.4,6.6-2.1,10.5-2.1c4,0,7.4,0.7,10.4,2.1
		c3,1.4,5.3,3.3,7,5.7c1.7,2.4,2.6,5.2,2.6,8.3H179.6z"/>
	<path class="st0" d="M236.4,115.1h-9.9V92.8h-0.4c-0.6,1.2-1.3,2.2-2.2,3.2c-1,1.1-2.2,2.1-3.8,2.9c-1.6,0.8-3.6,1.2-6,1.2
		c-3.3,0-6.2-0.8-8.8-2.5s-4.6-4.1-6.2-7.4c-1.5-3.2-2.3-7.1-2.3-11.7c0-4.6,0.8-8.6,2.3-11.8c1.5-3.2,3.6-5.6,6.2-7.3
		c2.6-1.6,5.5-2.5,8.7-2.5c2.5,0,4.5,0.4,6,1.2c1.6,0.8,2.8,1.8,3.8,3c0.8,1,1.6,2.1,2.2,3.3h0.6v-6.9h9.7L236.4,115.1z M226.7,78.5
		c0-2.7-0.4-5.1-1.1-7.1c-0.8-2-1.9-3.6-3.3-4.7c-1.5-1.1-3.3-1.7-5.4-1.7c-2.2,0-4,0.6-5.5,1.7c-1.5,1.1-2.6,2.7-3.3,4.7
		c-0.7,2-1.1,4.3-1.1,6.9c0,2.6,0.4,4.9,1.1,7c0.8,2,1.9,3.7,3.4,4.8c1.5,1.2,3.3,1.8,5.5,1.8c2.1,0,3.9-0.6,5.3-1.7
		c1.5-1.1,2.6-2.7,3.4-4.8C226.4,83.6,226.7,81.2,226.7,78.5"/>
	<path class="st0" d="M273.2,81.8V57.6h9.9v41.8h-9.6V92h-0.4c-0.9,2.3-2.6,4.3-4.6,5.7c-2.2,1.5-4.8,2.2-7.9,2.2
		c-2.7,0-5.2-0.6-7.3-1.8c-2.1-1.2-3.7-3-4.9-5.4c-1.2-2.4-1.8-5.2-1.8-8.5V57.6h9.9v25.1c0,2.7,0.7,4.8,2.2,6.3
		c1.5,1.6,3.4,2.3,5.7,2.3c1.5,0,2.9-0.4,4.2-1.1c1.4-0.7,2.6-1.8,3.4-3.2C272.8,85.7,273.2,83.9,273.2,81.8"/>
	<path class="st0" d="M305.2,100.3c-2.7,0-5-0.5-7.1-1.4c-2-0.9-3.8-2.4-5-4.2c-1.2-1.9-1.8-4.2-1.8-6.9c0-2.4,0.4-4.3,1.3-5.9
		c0.9-1.5,2.1-2.8,3.6-3.7c1.6-1,3.3-1.7,5.1-2.1c1.9-0.5,3.9-0.8,5.9-1c2.5-0.3,4.4-0.5,6-0.7c1.5-0.2,2.6-0.5,3.3-1
		c0.7-0.4,1-1.1,1-2.1V71c0-2.1-0.6-3.6-1.8-4.8c-1.2-1.1-3-1.7-5.3-1.7c-2.4,0-4.3,0.5-5.7,1.6c-1.4,1.1-2.4,2.3-2.8,3.7l-9.2-1.3
		c0.7-2.5,1.9-4.7,3.6-6.4c1.7-1.7,3.7-3,6.1-3.9c2.4-0.9,5.1-1.3,8-1.3c2,0,4,0.2,6,0.7c1.9,0.5,3.8,1.2,5.5,2.3
		c1.7,1.1,3,2.6,4,4.4c1,1.9,1.5,4.2,1.5,6.9v28h-9.5v-5.7h-0.3c-0.6,1.2-1.5,2.3-2.5,3.3c-1.1,1-2.4,1.8-4.1,2.4
		C309.3,99.9,307.4,100.3,305.2,100.3 M307.8,93c2,0,3.7-0.4,5.1-1.2c1.4-0.7,2.5-1.8,3.4-3.1c0.8-1.3,1.2-2.8,1.2-4.3v-4.9
		c-0.3,0.3-0.8,0.5-1.6,0.7c-0.8,0.2-1.6,0.4-2.5,0.6c-0.9,0.2-1.8,0.3-2.7,0.4c-0.9,0.1-1.7,0.2-2.3,0.3c-1.4,0.2-2.7,0.5-3.9,1
		c-1.2,0.5-2.1,1.1-2.8,1.9c-0.7,0.8-1,1.9-1,3.1c0,1.8,0.7,3.2,2,4.1S305.7,93,307.8,93"/>
	<path class="st0" d="M352.8,100.1c-3.3,0-6.2-0.8-8.8-2.5c-2.6-1.7-4.6-4.1-6.2-7.4c-1.5-3.2-2.3-7.1-2.3-11.7
		c0-4.6,0.8-8.6,2.3-11.8c1.5-3.2,3.6-5.6,6.2-7.3c2.6-1.6,5.5-2.5,8.7-2.5c2.5,0,4.5,0.4,6,1.2c1.6,0.8,2.8,1.8,3.8,3
		c0.8,1,1.6,2.1,2.2,3.3h0.4V43.6h9.9v55.8h-9.7v-6.6h-0.6c-0.6,1.2-1.3,2.2-2.2,3.2c-1,1.1-2.2,2.1-3.8,2.9
		C357.2,99.7,355.2,100.1,352.8,100.1 M355.5,92.1c2.1,0,3.9-0.6,5.3-1.7c1.5-1.1,2.6-2.7,3.3-4.8c0.8-2,1.1-4.4,1.1-7.1
		c0-2.7-0.4-5.1-1.1-7.1c-0.8-2-1.9-3.5-3.3-4.7c-1.5-1.1-3.3-1.7-5.4-1.7c-2.2,0-4,0.6-5.5,1.7c-1.5,1.1-2.6,2.7-3.3,4.7
		c-0.7,2-1.1,4.3-1.1,6.9c0,2.6,0.4,4.9,1.1,7c0.8,2,1.9,3.7,3.4,4.8C351.5,91.5,353.4,92.1,355.5,92.1L355.5,92.1z"/>
	<rect x="386" y="43.6" class="st0" width="10.1" height="55.8"/>
	<path class="st0" d="M453.6,86.9c2.2-4.3,3.4-9.4,3.4-15.4c0-6-1.1-11.2-3.4-15.4c-2.2-4.3-5.3-7.5-9.2-9.8
		c-3.9-2.3-8.2-3.4-13.1-3.4c-4.9,0-9.3,1.1-13.1,3.4c-3.9,2.3-6.9,5.5-9.2,9.8c-2.2,4.3-3.4,9.4-3.4,15.4c0,6,1.1,11.1,3.4,15.4
		c2.2,4.3,5.3,7.6,9.2,9.8c3.9,2.3,8.2,3.4,13.1,3.4c3.6,0,6.8-0.6,9.9-1.8l4.6,5.9h9.8l-7.8-10C450.1,92.3,452.1,89.9,453.6,86.9
		 M431.3,91.1c-3,0-5.7-0.7-8-2.2c-2.3-1.5-4.1-3.7-5.5-6.6c-1.3-2.9-2-6.5-2-10.7c0-4.2,0.7-7.8,2-10.7c1.3-2.9,3.1-5.1,5.5-6.6
		c2.3-1.5,5-2.3,8-2.3c3,0,5.7,0.7,8,2.2c2.3,1.5,4.1,3.7,5.5,6.6c1.3,2.9,2,6.5,2,10.7c0,4.2-0.7,7.8-2,10.7
		c-0.8,1.8-1.8,3.3-3,4.6l-4.7-6.1h-9.2l7.5,9.9C434.1,90.9,432.8,91.1,431.3,91.1"/>
	<path class="st0" d="M70,67.5c-3.2,0-5.7,2.6-5.7,5.7S66.9,79,70,79c3.2,0,5.7-2.6,5.7-5.7S73.2,67.5,70,67.5"/>
	<path class="st1" d="M105,103.6c0.2-0.2,0.4-0.5,0.6-0.7l0,0c10.4-12.5,14.3-30.6,6.7-49c-4.2-10.1-12.1-18.2-22.2-22.6
		C49,13.5,9.5,53.9,28.7,95.1c4.1,8.6,11.2,15.6,19.9,19.6c15.9,7.3,31.7,5.9,44-1l-6.3-6.2c-9.7,4.7-21.8,5.3-34-0.4
		c-7.2-3.3-13-9.2-16.2-16.4C20.6,56.7,53.6,23.9,87.4,39.3c7.1,3.3,12.9,9,16.3,16c7.3,15.6,4.4,30.9-4.2,41.6l-7.1-7.1
		c3.4-4.6,5.5-10.3,5.5-16.5c0-15.4-12.5-27.9-27.9-27.9c-15.4,0-27.9,12.5-27.9,27.9c0,15.4,12.5,27.9,27.9,27.9
		c6.2,0,11.9-2,16.5-5.4l7.1,7.1c0,0,0,0,0,0h0h0l6,6c0.9-0.8,1.8-1.6,2.7-2.4c0.2-0.2,0.3-0.3,0.5-0.4c0,0,0,0,0,0c0,0,0,0,0,0
		c0.5-0.5,0.9-1,1.3-1.5C104.4,104.2,104.7,103.9,105,103.6 M70,92.7c-10.7,0-19.5-8.7-19.5-19.5c0-10.7,8.7-19.5,19.5-19.5
		c10.7,0,19.5,8.7,19.5,19.5c0,3.9-1.1,7.4-3.1,10.5l-4-4c-1.6-1.6-4.3-1.6-5.9,0c0,0-0.1,0.1-0.1,0.1c-1.6,1.6-1.5,4.2,0.1,5.8
		l4,4.1C77.5,91.6,73.9,92.7,70,92.7"/>
	<rect x="23.7" y="26.9" class="st2" width="433.3" height="92.6"/>
</g>
</svg>
